<svg xmlns="http://www.w3.org/2000/svg" width="1024.5" viewBox="0 0 1024.5 576" height="576" version="1.0"><defs><clipPath id="a"><path d="M 0 0.140625 L 1024 0.140625 L 1024 575.859375 L 0 575.859375 Z M 0 0.140625"/></clipPath><clipPath id="b"><path d="M 9 395 L 232 395 L 232 575.859375 L 9 575.859375 Z M 9 395"/></clipPath><clipPath id="c"><path d="M 25.121094 750.691406 L -44.429688 408.945312 L 179.726562 363.328125 L 249.277344 705.074219 Z M 25.121094 750.691406"/></clipPath><clipPath id="d"><path d="M 25.121094 750.691406 L -44.429688 408.945312 L 179.726562 363.328125 L 249.277344 705.074219 Z M 25.121094 750.691406"/></clipPath><clipPath id="e"><path d="M 470 566 L 791 566 L 791 575.859375 L 470 575.859375 Z M 470 566"/></clipPath><clipPath id="f"><path d="M 809.664062 785.125 L 461.476562 804.945312 L 448.476562 576.566406 L 796.664062 556.746094 Z M 809.664062 785.125"/></clipPath><clipPath id="g"><path d="M 809.664062 785.125 L 461.476562 804.945312 L 448.476562 576.566406 L 796.664062 556.746094 Z M 809.664062 785.125"/></clipPath><clipPath id="h"><path d="M 0 0.140625 L 94 0.140625 L 94 213 L 0 213 Z M 0 0.140625"/></clipPath><clipPath id="i"><path d="M -151.832031 176.429688 L -79.398438 -42.132812 L 131.332031 27.707031 L 58.898438 246.265625 Z M -151.832031 176.429688"/></clipPath><clipPath id="j"><path d="M -151.832031 176.429688 L -79.398438 -42.132812 L 131.332031 27.707031 L 58.898438 246.265625 Z M -151.832031 176.429688"/></clipPath><clipPath id="k"><path d="M 988 395 L 1024 395 L 1024 575.859375 L 988 575.859375 Z M 988 395"/></clipPath><clipPath id="l"><path d="M 945.242188 425.8125 L 1102.992188 359.816406 L 1191.851562 572.230469 L 1034.101562 638.222656 Z M 945.242188 425.8125"/></clipPath><clipPath id="m"><path d="M 945.242188 425.8125 L 1102.992188 359.816406 L 1191.851562 572.230469 L 1034.101562 638.222656 Z M 945.242188 425.8125"/></clipPath><clipPath id="n"><path d="M 842 0.140625 L 1024 0.140625 L 1024 234 L 842 234 Z M 842 0.140625"/></clipPath><clipPath id="o"><path d="M 858.414062 276.726562 L 788.867188 -65.019531 L 1013.019531 -110.636719 L 1082.570312 231.109375 Z M 858.414062 276.726562"/></clipPath><clipPath id="p"><path d="M 858.414062 276.726562 L 788.867188 -65.019531 L 1013.019531 -110.636719 L 1082.570312 231.109375 Z M 858.414062 276.726562"/></clipPath><clipPath id="q"><path d="M 241 0.140625 L 467.765625 0.140625 L 467.765625 80 L 241 80 Z M 241 0.140625"/></clipPath></defs><g clip-path="url(#a)"><path fill="#FFF" d="M 0 0.140625 L 1024.5 0.140625 L 1024.5 583.640625 L 0 583.640625 Z M 0 0.140625"/><path fill="#FFF" d="M 0 0.140625 L 1024.5 0.140625 L 1024.5 576.140625 L 0 576.140625 Z M 0 0.140625"/><path fill="#4F53A9" d="M 0 0.140625 L 1024.5 0.140625 L 1024.5 576.140625 L 0 576.140625 Z M 0 0.140625"/></g><g clip-path="url(#b)"><g clip-path="url(#c)"><g clip-path="url(#d)"><path fill="#DF4E56" d="M 224.332031 621.371094 C 241.121094 665.070312 229.105469 709.175781 184.144531 707.15625 C 139.183594 705.136719 118.972656 606.144531 83.617188 574.046875 C 48.257812 541.945312 -31.113281 474.3125 35.28125 426.761719 C 101.675781 379.210938 176.859375 384.875 191.113281 450.050781 C 205.363281 515.230469 224.332031 621.371094 224.332031 621.371094 Z M 224.332031 621.371094"/></g></g></g><g clip-path="url(#e)"><g clip-path="url(#f)"><g clip-path="url(#g)"><path fill="#DF4E56" d="M 710.25 569.425781 C 755.90625 559.078125 797.835938 577.296875 789.386719 621.503906 C 780.9375 665.710938 680.074219 671.515625 643.234375 701.902344 C 606.394531 732.289062 528.078125 801.140625 490.542969 728.613281 C 453.003906 656.085938 469.390625 582.492188 535.9375 577.734375 C 602.484375 572.976562 710.25 569.425781 710.25 569.425781 Z M 710.25 569.425781"/></g></g></g><g clip-path="url(#h)"><g clip-path="url(#i)"><g clip-path="url(#j)"><path fill="#DF4E56" d="M -118.71875 115.40625 C -121.6875 85.46875 -66.273438 4.488281 -29.152344 -3.539062 C 7.96875 -11.570312 29.65625 -5.96875 57.007812 15.621094 C 84.355469 37.210938 97.625 72.75 92.484375 102.398438 C 87.339844 132.050781 82.265625 175.75 42.800781 190.855469 C 3.335938 205.957031 -2.792969 214.863281 -15.953125 212.042969 C -29.113281 209.226562 -70.988281 203.199219 -93.179688 175.515625 C -115.367188 147.828125 -115.828125 144.542969 -118.71875 115.40625 Z M -118.71875 115.40625"/></g></g></g><g clip-path="url(#k)"><g clip-path="url(#l)"><g clip-path="url(#m)"><path fill="#DF4E56" d="M 1034.59375 631.148438 C 1034.59375 631.148438 1045.195312 631.925781 1088.570312 614.609375 C 1131.945312 597.292969 1160.234375 582.925781 1170.710938 577.226562 C 1181.191406 571.527344 1184.976562 568.238281 1184.976562 568.238281 C 1184.976562 568.238281 1145.289062 461.023438 1131.945312 441.472656 C 1118.601562 421.917969 1092.226562 391.597656 1050.140625 395.566406 C 1008.050781 399.535156 1004.152344 412.808594 991.6875 436.238281 C 979.226562 459.671875 1003.5625 565.125 1016.847656 594.785156 C 1030.128906 624.445312 1034.59375 631.148438 1034.59375 631.148438 Z M 1034.59375 631.148438"/></g></g></g><g clip-path="url(#n)"><g clip-path="url(#o)"><g clip-path="url(#p)"><path fill="#DF4E56" d="M 1057.625 147.40625 C 1074.417969 191.105469 1062.398438 235.210938 1017.4375 233.191406 C 972.476562 231.171875 952.265625 132.179688 916.910156 100.082031 C 881.554688 67.980469 802.179688 0.347656 868.574219 -47.203125 C 934.96875 -94.753906 1010.15625 -89.089844 1024.40625 -23.914062 C 1038.65625 41.265625 1057.625 147.40625 1057.625 147.40625 Z M 1057.625 147.40625"/></g></g></g><g clip-path="url(#q)"><path fill="#DF4E56" d="M 241.652344 -6.574219 L 467.765625 -23.625 C 467.765625 -23.625 467.765625 64.167969 338.90625 78.765625 C 237.515625 90.28125 241.652344 -6.574219 241.652344 -6.574219 Z M 241.652344 -6.574219"/></g></svg>