<svg xmlns="http://www.w3.org/2000/svg" width="150" viewBox="0 -3 150 30" height="30" version="1.0"><g fill="#FFF"><g><g><path d="M 7.4375 0 L 18.078125 0 L 25.816406 -21.160156 L 14.238281 -21.160156 L 12.546875 -9.039062 L 12.09375 -9.039062 L 12.574219 -16.113281 L 10.703125 -21.160156 L -0.300781 -21.160156 Z M 7.4375 0" transform="translate(34.155 26.009)"/></g></g></g><g fill="#FFF"><g><g><path d="M 0.875 0 L 11.003906 0 L 11.003906 -21.160156 L 0.875 -21.160156 Z M 0.875 0" transform="translate(59.663 26.009)"/></g></g></g><g fill="#FFF"><g><g><path d="M 0.875 0 L 10.398438 0 L 10.398438 -4.472656 L 9.28125 -8.34375 L 9.703125 -8.34375 L 13.242188 0 L 22.398438 0 L 22.398438 -21.160156 L 12.90625 -21.160156 L 12.90625 -16.6875 L 13.996094 -12.816406 L 13.574219 -12.816406 L 10.035156 -21.160156 L 0.875 -21.160156 Z M 0.875 0" transform="translate(71.54 26.009)"/></g></g></g><g fill="#FFF"><g><g><path d="M 5.199219 0 L 15.839844 0 L 15.839844 -12.332031 L 20.675781 -12.332031 L 20.675781 -21.160156 L 0.363281 -21.160156 L 0.363281 -12.332031 L 5.199219 -12.332031 Z M 5.199219 0" transform="translate(94.812 26.009)"/></g></g></g></svg>