<svg xmlns="http://www.w3.org/2000/svg" width="200" viewBox="0 0 150 150" height="40" version="1.0"><path d="M 43.378906 63.070312 L 106.359375 63.070312 L 106.359375 87.070312 L 43.378906 87.070312 L 43.378906 63.070312"/><g fill="#FFF"><g><g><path d="M 9.839844 0 L 23.917969 0 L 34.160156 -28 L 18.839844 -28 L 16.597656 -11.960938 L 16 -11.960938 L 16.640625 -21.320312 L 14.160156 -28 L -0.398438 -28 Z M 9.839844 0" transform="translate(20.944 85.5)"/></g></g></g><g fill="#FFF"><g><g><path d="M 1.160156 0 L 14.558594 0 L 14.558594 -28 L 1.160156 -28 Z M 1.160156 0" transform="translate(54.702 85.5)"/></g></g></g><g fill="#FFF"><g><g><path d="M 1.160156 0 L 13.757812 0 L 13.757812 -5.917969 L 12.28125 -11.039062 L 12.839844 -11.039062 L 17.519531 0 L 29.640625 0 L 29.640625 -28 L 17.078125 -28 L 17.078125 -22.078125 L 18.519531 -16.960938 L 17.960938 -16.960938 L 13.28125 -28 L 1.160156 -28 Z M 1.160156 0" transform="translate(70.422 85.5)"/></g></g></g><g fill="#FFF"><g><g><path d="M 6.878906 0 L 20.960938 0 L 20.960938 -16.320312 L 27.359375 -16.320312 L 27.359375 -28 L 0.480469 -28 L 0.480469 -16.320312 L 6.878906 -16.320312 Z M 6.878906 0" transform="translate(101.22 85.5)"/></g></g></g></svg>